<?xml version="1.0" encoding="UTF-8"?>
<!-- Generator: visioncortex VTracer -->
<svg id="svg" version="1.1" xmlns="http://www.w3.org/2000/svg" style="display: block;" viewBox="0 0 1024 1024"><path d="M0 0 C337.92 0 675.84 0 1024 0 C1024 337.92 1024 675.84 1024 1024 C686.08 1024 348.16 1024 0 1024 C0 686.08 0 348.16 0 0 Z " transform="translate(0,0)" style="fill: #1F212D;"/><path d="M0 0 C0.83693893 -0.00571014 1.67387787 -0.01142029 2.53617859 -0.01730347 C3.9162207 -0.01898026 3.9162207 -0.01898026 5.32414246 -0.02069092 C6.2917601 -0.02565582 7.25937775 -0.03062073 8.25631714 -0.03573608 C11.46797895 -0.05038061 14.67959136 -0.05716373 17.89128113 -0.06268311 C20.11846926 -0.06843293 22.34565737 -0.07419068 24.57284546 -0.07995605 C29.24775931 -0.09047274 33.92265593 -0.09631095 38.59757996 -0.09979248 C44.59001098 -0.1052768 50.58221473 -0.12930084 56.57457447 -0.15776443 C61.17706977 -0.17638237 65.77951025 -0.18159598 70.38204002 -0.18312836 C72.59125193 -0.18615761 74.8004628 -0.19419529 77.00963783 -0.20731354 C80.10032587 -0.22435516 83.19045783 -0.22249817 86.28117371 -0.21600342 C87.65210678 -0.22982559 87.65210678 -0.22982559 89.05073547 -0.243927 C94.93086929 -0.20519099 98.42708107 0.63899438 102.76237488 4.85919189 C103.25221863 5.44700439 103.74206238 6.03481689 104.24674988 6.64044189 C104.74690613 7.22825439 105.24706238 7.81606689 105.76237488 8.42169189 C107.79986107 11.25869798 108.12354433 13.78469166 108.1439209 17.16783142 C108.1510762 17.98498123 108.15823151 18.80213104 108.16560364 19.64404297 C108.16829254 20.53706116 108.17098145 21.43007935 108.17375183 22.35015869 C108.18032303 23.29359634 108.18689423 24.237034 108.19366455 25.20906067 C108.21339843 28.33592813 108.22506122 31.46274752 108.23503113 34.58966064 C108.23910666 35.65811533 108.24318218 36.72657001 108.24738121 37.82740211 C108.26824367 43.48407422 108.28254389 49.14072206 108.29191589 54.79742432 C108.30297249 60.63378433 108.33736354 66.46976227 108.37708759 72.30598736 C108.40326342 76.79879962 108.41160868 81.29152104 108.41519737 85.78440285 C108.42006186 87.93532704 108.43167187 90.0862472 108.45023537 92.23709679 C108.47464375 95.25295426 108.47365829 98.26782595 108.46672058 101.28375244 C108.47953064 102.16664948 108.4923407 103.04954651 108.50553894 103.959198 C108.4566177 109.81559141 107.30111048 114.24818598 103.99674988 119.14044189 C100.1586156 122.79135011 97.11887641 124.24902691 91.85546875 124.30780029 C90.59188034 124.32503647 90.59188034 124.32503647 89.30276489 124.34262085 C88.38169449 124.35002289 87.46062408 124.35742493 86.51164246 124.36505127 C85.05259491 124.38213638 85.05259491 124.38213638 83.56407166 124.39956665 C73.39578942 124.51013986 63.22678584 124.55763157 53.05802917 124.60040283 C48.23409994 124.62268388 43.4109436 124.6644637 38.58732605 124.72344971 C32.76122361 124.79455339 26.935849 124.83123722 21.10933495 124.84352112 C18.8913608 124.85391801 16.6734085 124.87633325 14.45568275 124.91111755 C11.34587133 124.95737291 8.23890972 124.95931797 5.12882996 124.95098877 C3.76240608 124.9863826 3.76240608 124.9863826 2.36837769 125.02249146 C-3.75555143 124.94335641 -7.04021497 123.3750595 -11.38056564 119.03203011 C-16.13381197 113.49109788 -16.44335349 108.67225969 -16.40730286 101.6819458 C-16.41416611 100.74782364 -16.42102936 99.81370148 -16.42810059 98.85127258 C-16.44635439 95.77302716 -16.44253264 92.69529217 -16.43684387 89.61700439 C-16.44140672 87.4699792 -16.4467126 85.32295546 -16.45272827 83.17593384 C-16.46165689 78.67869123 -16.45923944 74.18162622 -16.44929504 69.68438721 C-16.43781268 63.93212921 -16.45800729 58.18048576 -16.48721218 52.42830849 C-16.50559389 47.99466074 -16.50527764 43.56115967 -16.49957466 39.12748337 C-16.49942165 37.00727858 -16.50544907 34.88706372 -16.51786613 32.76689529 C-16.53280922 29.7967852 -16.52207388 26.82780282 -16.50495911 23.85772705 C-16.51462708 22.98889389 -16.52429504 22.12006073 -16.53425598 21.22489929 C-16.45728329 14.81843018 -15.06058527 9.2890111 -10.48519039 4.57708168 C-6.94184925 1.54707109 -4.60376108 0.01878302 0 0 Z " transform="translate(319.0032501220703,585.8595581054688)" style="fill: #ED7149;"/><path d="M0 0 C1.25096718 -0.01506844 1.25096718 -0.01506844 2.52720642 -0.03044128 C3.43892609 -0.03627228 4.35064575 -0.04210327 5.28999329 -0.04811096 C6.25293808 -0.05789474 7.21588287 -0.06767853 8.20800781 -0.07775879 C11.39979165 -0.10771071 14.59153355 -0.12909872 17.78340149 -0.14796448 C18.8739213 -0.1545363 19.96444111 -0.16110813 21.08800697 -0.1678791 C26.86137724 -0.20047318 32.63472905 -0.22492295 38.40815735 -0.24440002 C43.18349599 -0.26220783 47.95824357 -0.2970205 52.73335266 -0.34693909 C58.50107778 -0.40716375 64.2682551 -0.43787922 70.03627968 -0.44757271 C72.23189986 -0.45612517 74.4275055 -0.47493799 76.62294579 -0.50431633 C79.70141009 -0.54328986 82.77774647 -0.54425735 85.85639954 -0.53639221 C86.75799805 -0.55639282 87.65959656 -0.57639343 88.58851624 -0.59700012 C94.31332938 -0.53156805 97.88770649 0.66987303 102.27070904 4.42258453 C107.33555893 9.8365317 107.33235484 15.97934027 107.28486633 22.94798279 C107.29012329 23.9049707 107.29538025 24.86195862 107.30079651 25.84794617 C107.31394594 28.99531111 107.3052769 32.14216588 107.29512024 35.28953552 C107.29714226 37.48476254 107.30005476 39.6799889 107.30381775 41.87521362 C107.30823412 46.46903396 107.30183143 51.06267896 107.28779602 55.65647888 C107.27069462 61.53997261 107.28055595 67.42305604 107.29851341 73.30653477 C107.3093611 77.83702682 107.30590052 82.3674218 107.29813004 86.89791679 C107.29613129 89.06721483 107.29857586 91.23652172 107.3055687 93.4058094 C107.31320034 96.43833346 107.30155498 99.47019545 107.28486633 102.50267029 C107.29093903 103.39582443 107.29701172 104.28897858 107.30326843 105.209198 C107.24460619 110.97269387 106.46049034 115.41415854 102.36152649 119.80516052 C96.81050433 124.05005982 93.45961599 124.31339515 86.5851593 124.32176208 C85.13614227 124.32920944 85.13614227 124.32920944 83.65785217 124.33680725 C80.45099686 124.35145318 77.24419105 124.35823552 74.03730774 124.36375427 C71.81251524 124.36950447 69.58772276 124.37526221 67.3629303 124.38102722 C62.69221261 124.39154464 58.02151217 124.39738221 53.3507843 124.40086365 C47.36741957 124.40634478 41.38428281 124.4303617 35.40098953 124.4588356 C30.80274289 124.47746672 26.20455104 124.48266788 21.60626984 124.48419952 C19.40067551 124.48722635 17.19508216 124.49525587 14.98952484 124.5083847 C11.90143557 124.52545204 8.81390169 124.5235629 5.7257843 124.51707458 C4.81542419 124.52628937 3.90506409 124.53550415 2.96711731 124.54499817 C-2.85373136 124.50671495 -7.27058531 123.74440378 -11.74784851 119.66062927 C-14.81854353 115.71699419 -16.22157217 112.97412674 -16.25048828 108.00588989 C-16.26122124 106.737966 -16.26122124 106.737966 -16.27217102 105.44442749 C-16.27620438 104.05810875 -16.27620438 104.05810875 -16.28031921 102.64378357 C-16.28689041 101.66787262 -16.29346161 100.69196167 -16.30023193 99.68647766 C-16.31996434 96.45260035 -16.3316268 93.21876946 -16.34159851 89.98484802 C-16.34567404 88.88079935 -16.34974957 87.77675068 -16.35394859 86.63924599 C-16.37480805 80.79684765 -16.38911091 74.95447281 -16.39848328 69.11204529 C-16.40955364 63.07595589 -16.44396145 57.04023453 -16.48365498 51.00427532 C-16.50978967 46.36399649 -16.51817228 41.72380582 -16.52176476 37.08345985 C-16.52663802 34.85831527 -16.53827295 32.63317481 -16.55680275 30.40810204 C-16.58112894 27.29365658 -16.58024093 24.18016978 -16.57328796 21.06565857 C-16.58609802 20.14751877 -16.59890808 19.22937897 -16.61210632 18.28341675 C-16.56697286 12.73425863 -15.81328254 9.55778948 -12.10331726 5.16062927 C-8.18116146 1.62112282 -5.27748163 0.05006666 0 0 Z " transform="translate(618.1033172607422,585.8393707275391)" style="fill: #C02D2F;"/><path d="M0 0 C0.82845428 -0.0071553 1.65690857 -0.01431061 2.51046753 -0.02168274 C3.86873405 -0.02571609 3.86873405 -0.02571609 5.25444031 -0.02983093 C6.21084412 -0.03640213 7.16724792 -0.04297333 8.15263367 -0.04974365 C11.32157976 -0.06947452 14.49047849 -0.0811382 17.6594696 -0.09111023 C18.74145315 -0.09518576 19.8234367 -0.09926128 20.93820763 -0.10346031 C26.66389653 -0.12431916 32.38956147 -0.13862226 38.11528015 -0.147995 C44.03030465 -0.15906497 49.94495353 -0.19347249 55.85984516 -0.23316669 C60.40747785 -0.25930348 64.95502059 -0.26768419 69.50272179 -0.27127647 C71.6832095 -0.27614923 73.86369303 -0.28778274 76.04410744 -0.30631447 C79.09629283 -0.33064508 82.14750025 -0.32975188 85.19975281 -0.32279968 C86.54891029 -0.34201477 86.54891029 -0.34201477 87.92532349 -0.36161804 C94.42182475 -0.30771701 97.91883637 1.1043173 102.59029484 5.83879375 C107.11434215 11.10724704 107.78894874 15.40418488 107.69755554 22.1999054 C107.70806946 23.17333389 107.71858337 24.14676239 107.72941589 25.14968872 C107.75568952 28.34743121 107.73838895 31.54316051 107.71806335 34.74092102 C107.72210857 36.97477091 107.72793456 39.20861822 107.73545837 41.44245911 C107.74428779 46.11625908 107.73149964 50.78936941 107.70341492 55.46308899 C107.66923019 61.44205879 107.68892199 67.4194125 107.7248497 73.39832306 C107.7465727 78.00876453 107.73961144 82.61882537 107.72408295 87.22927856 C107.72009191 89.43320916 107.72495191 91.63717476 107.73896027 93.84106445 C107.75426963 96.92644751 107.73087842 100.00924527 107.69755554 103.09443665 C107.71577362 104.44907768 107.71577362 104.44907768 107.73435974 105.83108521 C107.60243845 112.45302358 105.67912179 116.5131366 100.92118835 121.14717102 C95.91417078 124.7236082 91.0872821 124.58075945 85.15556335 124.55122375 C83.70567017 124.56151863 83.70567017 124.56151863 82.22648621 124.57202148 C79.04123621 124.59027669 75.85647928 124.58645411 72.67118835 124.58076477 C70.45211121 124.58532678 68.23303547 124.59063241 66.01396179 124.59664917 C61.36709344 124.60557748 56.72039698 124.60315977 52.0735321 124.59321594 C46.12154671 124.58171973 40.170154 124.60194963 34.21824646 124.63113308 C29.63713316 124.64948566 25.0561622 124.64920458 20.47502136 124.64349556 C18.28059558 124.64334227 16.0861602 124.64939304 13.89176941 124.66178703 C10.823073 124.67667905 7.75547557 124.66603293 4.68681335 124.64888 C3.78273743 124.65854797 2.8786615 124.66821594 1.94718933 124.67817688 C-3.56034245 124.61377461 -6.71021382 123.81694576 -11.07881165 120.14717102 C-14.62492312 116.21769614 -16.19760826 113.31954494 -16.21925354 108.03039551 C-16.22496368 107.19352707 -16.23067383 106.35665863 -16.23655701 105.49443054 C-16.23767487 104.57956879 -16.23879272 103.66470703 -16.23994446 102.72212219 C-16.24490936 101.75596481 -16.24987427 100.78980743 -16.25498962 99.79437256 C-16.26961391 96.59295442 -16.27641378 93.39158584 -16.28193665 90.19013977 C-16.28768797 87.96677651 -16.2934457 85.74341327 -16.29920959 83.52005005 C-16.3097204 78.85530872 -16.31556252 74.19058464 -16.31904602 69.52583313 C-16.32453026 63.55034417 -16.34855663 57.57508313 -16.37701797 51.59966564 C-16.39564746 47.0057102 -16.40085013 42.41180962 -16.4023819 37.8178196 C-16.40540834 35.61501634 -16.41343658 33.41221406 -16.42656708 31.20944786 C-16.44363341 28.12625701 -16.44174569 25.04362245 -16.43525696 21.96040344 C-16.44447174 21.05161438 -16.45368652 20.14282532 -16.46318054 19.20649719 C-16.42486143 13.39013409 -15.65920797 8.97619928 -11.57881165 4.50263977 C-7.66814445 1.45761505 -4.93082658 0.02928665 0 0 Z " transform="translate(469.0788116455078,585.8528289794922)" style="fill: #E44428;"/><path d="M0 0 C0.81300064 -0.00571014 1.62600128 -0.01142029 2.46363831 -0.01730347 C3.34685257 -0.01842133 4.23006683 -0.01953918 5.14004517 -0.02069092 C6.54560921 -0.02813828 6.54560921 -0.02813828 7.97956848 -0.03573608 C11.07815282 -0.05033629 14.17668599 -0.05715571 17.27529907 -0.06268311 C19.42997234 -0.06843577 21.5846456 -0.07419349 23.73931885 -0.07995605 C28.25684853 -0.09045956 32.77436046 -0.09630667 37.29190063 -0.09979248 C43.07791448 -0.10527965 48.8636933 -0.12931531 54.64963341 -0.15776443 C59.10032842 -0.17639455 63.55096682 -0.18159659 68.00169754 -0.18312836 C70.13472404 -0.18615392 72.26774956 -0.19417919 74.40073776 -0.20731354 C77.38563658 -0.2243836 80.36996098 -0.22249145 83.35488892 -0.21600342 C84.67363762 -0.22982559 84.67363762 -0.22982559 86.01902771 -0.243927 C92.53047929 -0.19963005 96.64800487 1.16486436 101.62686157 5.57794189 C104.68546452 9.06135081 106.12227042 11.63335663 106.14428711 16.28808594 C106.15281708 17.10661041 106.16134705 17.92513489 106.1701355 18.76846313 C106.16922913 19.65788605 106.16832275 20.54730896 106.16738892 21.46368408 C106.17410614 22.40726776 106.18082336 23.35085144 106.18774414 24.32302856 C106.2067515 27.44451151 106.21065002 30.56577967 106.21279907 33.68731689 C106.21922613 35.85962004 106.22595442 38.03192231 106.23297119 40.20422363 C106.24495154 44.76045742 106.24865133 49.31661534 106.24746704 53.87286377 C106.24726405 59.70137714 106.27454275 65.52940185 106.30901146 71.35779953 C106.33129021 75.84633603 106.33530424 80.33475524 106.33424759 84.82334137 C106.33660297 86.97146536 106.34542292 89.11959261 106.36091232 91.26766205 C106.38058731 94.27865903 106.37472749 97.28860639 106.36270142 100.29962158 C106.37394043 101.18094757 106.38517944 102.06227356 106.39675903 102.9703064 C106.33813986 108.76867833 105.25812392 113.34155627 101.87686157 118.14044189 C97.6625445 121.49469426 94.17696031 123.25566487 88.79804993 123.28761292 C87.96959564 123.29476822 87.14114136 123.30192352 86.2875824 123.30929565 C84.92931587 123.31332901 84.92931587 123.31332901 83.54360962 123.31744385 C82.58720581 123.32401505 81.630802 123.33058624 80.64541626 123.33735657 C77.47647017 123.35708744 74.30757144 123.36875112 71.13858032 123.37872314 C70.05659678 123.38279867 68.97461323 123.3868742 67.8598423 123.39107323 C62.1341534 123.41193207 56.40848846 123.42623517 50.68276978 123.43560791 C44.76774528 123.44667789 38.85309639 123.4810854 32.93820477 123.52077961 C28.39057208 123.54691639 23.84302934 123.5552971 19.29532814 123.55888939 C17.11484042 123.56376215 14.9343569 123.57539566 12.75394249 123.59392738 C9.70175709 123.61825799 6.65054967 123.61736479 3.59829712 123.6104126 C2.6988588 123.62322266 1.79942047 123.63603271 0.87272644 123.64923096 C-5.84151191 123.59352337 -9.21340018 121.56522377 -14.37313843 117.26544189 C-18.61072643 112.11979932 -18.41612281 106.1799121 -18.39779663 99.84967041 C-18.40290756 98.9334491 -18.40801849 98.01722778 -18.4132843 97.07324219 C-18.4271442 94.05521041 -18.42622631 91.0374079 -18.42391968 88.01934814 C-18.42780842 85.91476863 -18.43214346 83.8101899 -18.43690491 81.70561218 C-18.44435925 77.2983648 -18.44408139 72.89119755 -18.43881226 68.48394775 C-18.43301695 62.84379572 -18.44995407 57.203972 -18.47315693 51.56387424 C-18.48790732 47.21864412 -18.48876421 42.87349284 -18.4856472 38.52824211 C-18.4861597 36.44907925 -18.49138394 34.3699119 -18.50145912 32.29077339 C-18.51383214 29.38050272 -18.50702662 26.47086883 -18.49545288 23.56060791 C-18.50309662 22.70688095 -18.51074036 21.85315399 -18.51861572 20.97355652 C-18.46523821 14.8834621 -17.53716555 9.95213938 -13.43954468 5.17950439 C-12.86075562 4.71286377 -12.28196655 4.24622314 -11.68563843 3.76544189 C-10.82132202 3.04227783 -10.82132202 3.04227783 -9.93954468 2.30450439 C-6.79961875 0.29225079 -3.66899717 0.0155066 0 0 Z " transform="translate(321.1231384277344,437.85955810546875)" style="fill: #F29056;"/><path d="M0 0 C1.20254425 -0.00856522 1.20254425 -0.00856522 2.42938232 -0.01730347 C3.73546448 -0.01898026 3.73546448 -0.01898026 5.06793213 -0.02069092 C6.45404694 -0.02813828 6.45404694 -0.02813828 7.86816406 -0.03573608 C10.92466986 -0.05033824 13.98112374 -0.05715685 17.03765869 -0.06268311 C19.16512045 -0.06843662 21.29258221 -0.07419433 23.42004395 -0.07995605 C27.88210288 -0.09046082 32.34414382 -0.09630677 36.80621338 -0.09979248 C42.51356164 -0.1052729 48.22067082 -0.12929362 53.92794418 -0.15776443 C58.32381883 -0.17642299 62.71963629 -0.18159816 67.11554718 -0.18312836 C69.21900996 -0.18614866 71.32247189 -0.19415611 73.42589569 -0.20731354 C76.37446577 -0.22443943 79.32245698 -0.22247762 82.27105713 -0.21600342 C83.13368164 -0.2252182 83.99630615 -0.23443298 84.8850708 -0.243927 C90.81126652 -0.20333059 96.89018245 0.3880009 101.49187851 4.55701828 C104.71619419 8.27303716 106.04625146 11.31919117 106.07545471 16.16783142 C106.08261002 16.98498123 106.08976532 17.80213104 106.09713745 18.64404297 C106.09982635 19.53706116 106.10251526 20.43007935 106.10528564 21.35015869 C106.11185684 22.29359634 106.11842804 23.237034 106.12519836 24.20906067 C106.14493224 27.33592813 106.15659503 30.46274752 106.16656494 33.58966064 C106.17064047 34.65811533 106.174716 35.72657001 106.17891502 36.82740211 C106.19977749 42.48407422 106.2140777 48.14072206 106.22344971 53.79742432 C106.2345063 59.63378433 106.26889736 65.46976227 106.30862141 71.30598736 C106.33479723 75.79879962 106.34314249 80.29152104 106.34673119 84.78440285 C106.35159567 86.93532704 106.36320568 89.0862472 106.38176918 91.23709679 C106.40617756 94.25295426 106.40519211 97.26782595 106.39825439 100.28375244 C106.41106445 101.16664948 106.42387451 102.04954651 106.43707275 102.959198 C106.38857602 108.7647741 105.31587388 113.33652536 101.92828369 118.14044189 C97.72647603 121.48473779 94.24749376 123.26154804 88.88070679 123.27415466 C87.64847885 123.28055214 87.64847885 123.28055214 86.39135742 123.28707886 C85.4936261 123.28662567 84.59589478 123.28617249 83.67095947 123.28570557 C82.72270294 123.28906418 81.77444641 123.29242279 80.79745483 123.29588318 C77.65615537 123.30539842 74.51490918 123.3073366 71.37359619 123.30841064 C69.19267759 123.31162289 67.01175921 123.31498694 64.83084106 123.3184967 C60.25605774 123.32448945 55.68129332 123.32633646 51.10650635 123.32574463 C45.24306898 123.32564301 39.37975273 123.33929404 33.51634407 123.35651684 C29.01078738 123.36763296 24.50526001 123.36966395 19.99969101 123.3691349 C17.83793597 123.37031565 15.67618019 123.37474271 13.51443863 123.38246727 C10.49100503 123.39225894 7.46783476 123.38939225 4.44439697 123.38336182 C3.10387268 123.39179108 3.10387268 123.39179108 1.73626709 123.40039062 C-3.49545451 123.37385969 -7.79778485 123.22823295 -11.83734131 119.51934814 C-12.57210693 118.62022705 -12.57210693 118.62022705 -13.32171631 117.70294189 C-14.07195068 116.80768799 -14.07195068 116.80768799 -14.83734131 115.89434814 C-16.86671907 113.01083353 -17.19802231 110.48077353 -17.2121582 107.06163025 C-17.21786835 106.23317596 -17.22357849 105.40472168 -17.22946167 104.55116272 C-17.23057953 103.6456517 -17.23169739 102.74014069 -17.23284912 101.80718994 C-17.23781403 100.85078613 -17.24277893 99.89438232 -17.24789429 98.90899658 C-17.262518 95.74004399 -17.26931836 92.57114146 -17.27484131 89.40216064 C-17.28059269 87.20121763 -17.28635042 85.00027464 -17.29211426 82.79933167 C-17.30262491 78.18166877 -17.30846713 73.56402328 -17.31195068 68.9463501 C-17.31743483 63.03139427 -17.34146105 57.11666871 -17.36992264 51.20178509 C-17.38855288 46.65415272 -17.39375484 42.10657577 -17.39528656 37.55890846 C-17.39831285 35.37843378 -17.40634055 33.19796006 -17.41947174 31.01752281 C-17.43653963 27.96546321 -17.43464999 24.9139655 -17.42816162 21.86187744 C-17.4373764 20.96243912 -17.44659119 20.06300079 -17.45608521 19.13630676 C-17.4175286 13.34214854 -16.60975388 8.98981207 -12.60687256 4.49591064 C-8.33282259 1.10614687 -5.36168031 0.0229862 0 0 Z " transform="translate(619.0717163085938,437.85955810546875)" style="fill: #E0472E;"/><path d="M0 0 C0.95465149 -0.0049649 1.90930298 -0.00992981 2.8928833 -0.01504517 C6.06246656 -0.02969217 9.23199973 -0.03647402 12.40161133 -0.04199219 C14.60158795 -0.0477428 16.80156455 -0.05350054 19.00154114 -0.05926514 C23.62098423 -0.0697832 28.24040989 -0.07562018 32.85986328 -0.07910156 C38.7736286 -0.08457934 44.68716287 -0.10858878 50.60085583 -0.13707352 C55.14853075 -0.15571876 59.69615033 -0.16090657 64.24386024 -0.16243744 C66.42350842 -0.16546166 68.60315568 -0.17348237 70.78276634 -0.18662262 C73.83712558 -0.20371762 76.89092455 -0.20179394 79.9453125 -0.1953125 C80.84272659 -0.20452728 81.74014069 -0.21374207 82.66474915 -0.22323608 C88.72385782 -0.18305179 93.73607503 0.58820606 98.53833008 4.62597656 C101.84071059 8.91907123 102.90770853 11.94336083 102.95004272 17.27081299 C102.95864319 18.08092331 102.96724365 18.89103363 102.97610474 19.72569275 C102.98036469 20.60576492 102.98462463 21.4858371 102.98901367 22.39257812 C103.00127991 23.79332329 103.00127991 23.79332329 103.01379395 25.22236633 C103.03859671 28.3113237 103.05515065 31.40023528 103.06958008 34.48925781 C103.07490376 35.54576286 103.08022743 36.60226791 103.08571243 37.69078827 C103.11242139 43.28262099 103.13180378 48.87443156 103.14624023 54.46630859 C103.15958083 59.08923115 103.18743943 63.71171248 103.22827148 68.33447266 C103.27761988 73.92178376 103.30236394 79.50869456 103.30946732 85.09621429 C103.3161738 87.22203695 103.33138009 89.34785089 103.35535812 91.47354889 C103.38705578 94.45354037 103.38703932 97.43199285 103.37963867 100.41210938 C103.39604401 101.28408463 103.41244934 102.15605988 103.42935181 103.05445862 C103.3664844 109.26215807 101.84585656 113.41594941 97.79614258 118.16113281 C92.79853501 122.73658859 88.38236691 122.73104319 81.9387207 122.6628418 C80.47419716 122.67094627 80.47419716 122.67094627 78.98008728 122.67921448 C75.76221123 122.69169158 72.54523163 122.67521695 69.32739258 122.65722656 C67.08589633 122.65738157 64.84439982 122.6588709 62.60290527 122.66163635 C57.90889616 122.6630199 53.21519275 122.65046936 48.52124023 122.62768555 C42.50878742 122.59930141 36.4968425 122.60203901 30.48435211 122.61477566 C25.85690993 122.62173544 21.22958483 122.61394005 16.60215759 122.60151863 C14.38541615 122.59700707 12.16866213 122.59666474 9.95191956 122.60058403 C6.85220639 122.60349911 3.75318956 122.58697438 0.65356445 122.56518555 C-0.25986221 122.56968719 -1.17328888 122.57418884 -2.11439514 122.5788269 C-7.19192074 122.51961966 -10.98823096 122.27405335 -15.20385742 119.16113281 C-20.52687089 113.24635461 -22.08501353 108.15183264 -21.93261719 100.33032227 C-21.93831223 99.39254944 -21.94400726 98.45477661 -21.94987488 97.48858643 C-21.96090897 94.41640797 -21.92902629 91.34640033 -21.89526367 88.27441406 C-21.89168319 86.12688954 -21.89032986 83.97936026 -21.89109802 81.83183289 C-21.88641922 77.3438857 -21.86166983 72.85666179 -21.82128906 68.36889648 C-21.77022832 62.62216749 -21.7588496 56.87622944 -21.76112461 51.12930012 C-21.76030832 46.69999165 -21.74384721 42.27085537 -21.72212029 37.84160423 C-21.71259006 35.72255949 -21.70666504 33.60349531 -21.70443916 31.48443031 C-21.69792145 28.52386953 -21.67163536 25.56414104 -21.63964844 22.60375977 C-21.64168777 21.2967939 -21.64168777 21.2967939 -21.64376831 19.96342468 C-21.55142324 14.10719884 -20.61441183 9.72201132 -16.44995117 5.29785156 C-15.85311523 4.81960938 -15.2562793 4.34136719 -14.64135742 3.84863281 C-14.04194336 3.3575 -13.4425293 2.86636719 -12.82495117 2.36035156 C-8.85415302 -0.57708225 -4.74588432 0.00584576 0 0 Z " transform="translate(324.203857421875,290.8388671875)" style="fill: #F7BF99;"/><path d="M0 0 C0.95698792 -0.00554901 1.91397583 -0.01109802 2.89996338 -0.01681519 C6.04767711 -0.02857845 9.19394076 -0.00437094 12.34155273 0.02148438 C14.5367781 0.0231963 16.73200551 0.02312897 18.92723083 0.0213623 C23.52118568 0.02301362 28.11465141 0.04167908 32.70849609 0.07324219 C38.59202506 0.11294211 44.47491447 0.11728341 50.35855198 0.10977936 C54.88907208 0.10670769 59.41944884 0.1188369 63.94993401 0.13591003 C66.1192224 0.14293222 68.28852703 0.14606552 70.45782661 0.1452179 C73.49041148 0.14701878 76.52223463 0.16842542 79.5546875 0.1953125 C80.44784164 0.1923819 81.34099579 0.18945129 82.26121521 0.18643188 C88.80098053 0.27573765 92.95938852 1.61802845 97.96264648 6.05273438 C101.01774145 9.53214809 102.4562342 12.10713317 102.48680115 16.75614929 C102.49677628 17.57322861 102.5067514 18.39030792 102.51702881 19.23214722 C102.51769348 20.11999908 102.51835815 21.00785095 102.51904297 21.92260742 C102.52736649 22.86458481 102.53569 23.80656219 102.54426575 24.77708435 C102.56837559 27.89374928 102.5771403 31.0102048 102.58374023 34.12695312 C102.59270771 36.29686038 102.60182958 38.46676699 102.61109924 40.63667297 C102.62759581 45.18870546 102.63529025 49.74066436 102.63818359 54.29272461 C102.64355976 60.11226762 102.68120585 65.931114 102.72692776 71.75046062 C102.75674537 76.2347513 102.76390823 80.71887543 102.76490974 85.20325661 C102.76910475 87.34777826 102.78151 89.49230073 102.80242729 91.63672447 C102.82943078 94.64529161 102.82448851 97.65226026 102.81201172 100.66088867 C102.82684601 101.53861938 102.8416803 102.4163501 102.85696411 103.32067871 C102.78167785 109.72979516 101.22523926 114.54906766 97.21264648 119.61523438 C92.31793318 124.15354708 86.80540587 124.18616192 80.42529297 124.11694336 C79.46830505 124.12234634 78.51131714 124.12774933 77.52532959 124.13331604 C74.37781371 124.14577233 71.23121798 124.12933374 68.08374023 124.11132812 C65.88851371 124.11148317 63.69328692 124.11297309 61.49806213 124.11573792 C56.90418349 124.11712048 52.3106176 124.10458631 47.71679688 124.08178711 C41.83328481 124.05338647 35.95029155 124.05614641 30.06674099 124.06887722 C25.53623536 124.07583691 21.00584932 124.06804201 16.47535896 124.05562019 C14.30606609 124.05110972 12.13676037 124.05076535 9.96746635 124.05468559 C6.93491223 124.05760102 3.9030696 124.04107499 0.87060547 124.01928711 C-0.02254868 124.02378876 -0.91570282 124.02829041 -1.83592224 124.03292847 C-6.89870528 123.97259516 -10.40353361 123.42676938 -14.78735352 120.61523438 C-18.49279942 116.60100131 -21.02887456 112.96661169 -21.05477905 107.42289734 C-21.06330902 106.59451355 -21.07183899 105.76612976 -21.08062744 104.91264343 C-21.07972107 104.01229874 -21.0788147 103.11195404 -21.07788086 102.18432617 C-21.0879567 100.75191086 -21.0879567 100.75191086 -21.09823608 99.29055786 C-21.11724268 96.13180342 -21.12114177 92.9732612 -21.12329102 89.81445312 C-21.12971756 87.61733411 -21.13644581 85.42021596 -21.14346313 83.22309875 C-21.1554429 78.61559058 -21.15914328 74.00815742 -21.15795898 69.40063477 C-21.15775587 63.50252329 -21.18504779 57.60489403 -21.2195034 51.70689678 C-21.24176489 47.1677887 -21.24579673 42.62879675 -21.24473953 38.08963966 C-21.24709701 35.91556958 -21.25592875 33.74149637 -21.27140427 31.56748009 C-21.29104656 28.52275435 -21.28523246 25.47906943 -21.27319336 22.43432617 C-21.28443237 21.54005417 -21.29567139 20.64578217 -21.30725098 19.72441101 C-21.24141895 13.15733081 -19.93012618 8.84284749 -15.30911922 4.09709454 C-10.50675309 0.10227423 -6.06317312 -0.090242 0 0 Z " transform="translate(473.787353515625,437.384765625)" style="fill: #F15026;"/><path d="M0 0 C0.96163055 -0.01007584 1.92326111 -0.02015167 2.91403198 -0.03053284 C6.09026754 -0.05900762 9.26602759 -0.0648896 12.44238281 -0.06811523 C14.65570266 -0.07775809 16.86902059 -0.0878507 19.08233643 -0.09837341 C23.72257925 -0.11633463 28.36265456 -0.12189458 33.00292969 -0.12011719 C38.93581282 -0.11981268 44.86761594 -0.16073516 50.80024338 -0.21243382 C55.37291348 -0.24586947 59.94532475 -0.2518725 64.51810455 -0.25028801 C66.70449794 -0.2538183 68.89089873 -0.26703274 71.07717133 -0.29028511 C74.14335106 -0.31983784 77.20721673 -0.31099634 80.2734375 -0.29296875 C81.16829865 -0.30982727 82.06315979 -0.32668579 82.98513794 -0.34405518 C89.83852066 -0.24218508 94.23946497 1.95312849 99.39550781 6.43579102 C103.27761672 10.76474966 102.82701914 15.55139027 102.79956055 21.08789062 C102.8064238 22.05434006 102.81328705 23.02078949 102.82035828 24.01652527 C102.83864066 27.20721175 102.83478662 30.3974072 102.82910156 33.58813477 C102.83366268 35.80864115 102.83896804 38.02914613 102.84498596 40.24964905 C102.85391992 44.90249366 102.85149062 49.55516665 102.84155273 54.20800781 C102.83006311 60.1678689 102.85027346 66.12713749 102.87946987 72.08692074 C102.89782406 76.67232521 102.89754092 81.2575875 102.89183235 85.84301949 C102.89167904 88.04023634 102.89773142 90.23746278 102.91012383 92.4346447 C102.92501672 95.50823918 102.91436859 98.58073651 102.8972168 101.65429688 C102.90688477 102.55994385 102.91655273 103.46559082 102.92651367 104.39868164 C102.86218962 109.90897705 102.0726588 113.06813995 98.39550781 117.43579102 C94.67468059 120.71366261 92.34498376 122.55811984 87.39225769 122.56950378 C86.55531876 122.57376877 85.71837982 122.57803375 84.8560791 122.58242798 C83.93605103 122.58197479 83.01602295 122.58152161 82.06811523 122.58105469 C81.10049759 122.5844133 80.13287994 122.58777191 79.13594055 122.5912323 C75.92427297 122.60076238 72.71265742 122.60268656 69.50097656 122.60375977 C67.27378823 122.60697132 65.04660011 122.61033532 62.81941223 122.61384583 C58.14449576 122.61984253 53.46959778 122.62168521 48.79467773 122.62109375 C42.80229731 122.62099219 36.81003553 122.63463574 30.81768322 122.65186596 C26.21518915 122.66298231 21.61272378 122.66501306 17.01021767 122.66448402 C14.80101424 122.66566502 12.5918101 122.6700935 10.38261986 122.67781639 C7.29202338 122.68760718 4.20168456 122.68474155 1.11108398 122.67871094 C0.1971286 122.68433044 -0.71682678 122.68994995 -1.65847778 122.69573975 C-6.94349138 122.66951787 -11.32152719 122.5773334 -15.37011719 118.77954102 C-15.85996094 118.17110352 -16.34980469 117.56266602 -16.85449219 116.93579102 C-17.35464844 116.32735352 -17.85480469 115.71891602 -18.37011719 115.09204102 C-21.34829677 111.09600258 -20.78271637 106.94623523 -20.81323242 102.15600586 C-20.8230162 101.19320709 -20.83279999 100.23040833 -20.84288025 99.23843384 C-20.87287664 96.04121286 -20.89423424 92.84403395 -20.91308594 89.64672852 C-20.91965776 88.55529163 -20.92622959 87.46385475 -20.93300056 86.33934402 C-20.96561653 80.55949449 -20.99005909 74.77966354 -21.00952148 68.99975586 C-21.02732114 64.21758127 -21.06211749 59.43599781 -21.11206055 54.65405273 C-21.1722879 48.88099662 -21.20300154 43.10848793 -21.21269417 37.3351326 C-21.22124773 35.13672141 -21.24006325 32.9383248 -21.26943779 30.74009323 C-21.30841341 27.65673127 -21.30937833 24.57549383 -21.30151367 21.49194336 C-21.32151428 20.5887738 -21.34151489 19.68560425 -21.36212158 18.75506592 C-21.28584863 12.07038544 -19.29212762 8.17971292 -14.60449219 3.43579102 C-10.20451736 -0.38011192 -5.55803679 -0.00836858 0 0 Z " transform="translate(622.6044921875,290.564208984375)" style="fill: #F2793E;"/><path d="M0 0 C1.43438667 -0.00744736 1.43438667 -0.00744736 2.89775085 -0.01504517 C6.07214062 -0.02969075 9.24648039 -0.03647339 12.42089844 -0.04199219 C14.62327069 -0.04774243 16.82564292 -0.05350017 19.02801514 -0.05926514 C23.6516544 -0.06978246 28.27527623 -0.07562009 32.89892578 -0.07910156 C38.82175738 -0.08458256 44.74435866 -0.10859924 50.66711807 -0.13707352 C55.21904165 -0.1557054 59.77090986 -0.16090583 64.32286835 -0.16243744 C66.5061341 -0.16546411 68.68939888 -0.17349311 70.87262726 -0.18662262 C73.92958527 -0.20369152 76.98598231 -0.20180044 80.04296875 -0.1953125 C81.3944828 -0.20913467 81.3944828 -0.20913467 82.77330017 -0.22323608 C88.73048877 -0.18366295 93.13661268 0.67265549 97.64355469 4.91503906 C98.12179687 5.511875 98.60003906 6.10871094 99.09277344 6.72363281 C99.82947266 7.62275391 99.82947266 7.62275391 100.58105469 8.54003906 C103.48986176 12.47213983 102.93550471 16.49653195 102.94140625 21.19726562 C102.94885361 22.60239159 102.94885361 22.60239159 102.95645142 24.03590393 C102.97109627 27.14536262 102.97787954 30.25477026 102.98339844 33.36425781 C102.98914877 35.52178957 102.99490652 37.67932131 103.00067139 39.83685303 C103.01118853 44.36633544 103.01702627 48.89580006 103.02050781 53.42529297 C103.02598855 59.22705837 103.05000471 65.0285886 103.07847977 70.8302803 C103.09711324 75.28955773 103.10231217 79.74877866 103.10384369 84.20809174 C103.10687004 86.34670037 103.11489797 88.48530801 103.12802887 90.62387848 C103.14510099 93.61857409 103.14320592 96.61269721 103.13671875 99.60742188 C103.14593353 100.48972977 103.15514832 101.37203766 103.16464233 102.28108215 C103.12043256 108.80266406 101.76322952 112.9239516 97.34277344 117.91113281 C93.83592305 120.99031852 91.26583592 122.40844598 86.58120728 122.42182922 C85.75137833 122.42891403 84.92154938 122.43599884 84.0665741 122.44329834 C83.16465836 122.44082092 82.26274261 122.43834351 81.33349609 122.43579102 C80.37694626 122.44090195 79.42039642 122.44601288 78.43486023 122.45127869 C75.27128856 122.46518394 72.10793455 122.46421707 68.94433594 122.46191406 C66.74482136 122.46580073 64.54530753 122.47013534 62.34579468 122.47489929 C57.73408578 122.4823637 53.12245342 122.48206879 48.51074219 122.47680664 C42.60364105 122.47101447 36.69685372 122.48793603 30.78980446 122.51115131 C26.24645152 122.52589091 21.70317409 122.52675998 17.15980148 122.52364159 C14.98212437 122.52415477 12.80444302 122.52939199 10.62678909 122.53945351 C7.57959936 122.55180349 4.53301997 122.54503435 1.48583984 122.53344727 C0.58797256 122.541091 -0.30989471 122.54873474 -1.23497009 122.55661011 C-7.01511527 122.50808196 -11.45943208 121.73784477 -15.86425781 117.62597656 C-20.0836685 112.10828566 -20.37648381 108.79009009 -20.39672852 101.95727539 C-20.40329971 101.0026239 -20.40987091 100.04797241 -20.41664124 99.06439209 C-20.43640353 95.89481533 -20.44804441 92.72528606 -20.45800781 89.55566406 C-20.46208334 88.47401159 -20.46615887 87.39235912 -20.47035789 86.27792931 C-20.49123283 80.55109217 -20.50552743 74.82427909 -20.51489258 69.09741211 C-20.5259497 63.18357786 -20.56033778 57.27012064 -20.60006428 51.35641956 C-20.62622211 46.80874435 -20.63458378 42.26115898 -20.63817406 37.71341515 C-20.64304348 35.53375393 -20.65466753 33.35409682 -20.67321205 31.17450905 C-20.69758131 28.12002442 -20.69664204 25.06651514 -20.68969727 22.01196289 C-20.70250732 21.1145488 -20.71531738 20.2171347 -20.72851562 19.29252625 C-20.67983108 13.40497994 -19.62429216 9.9980111 -16.21972656 5.16113281 C-10.78267353 0.24189435 -7.14721224 0.00878838 0 0 Z " transform="translate(473.2197265625,290.8388671875)" style="fill: #F4985E;"/></svg>